<svg width="500" height="500" viewBox="0 0 500 500" fill="none" xmlns="http://www.w3.org/2000/svg">
<g clip-path="url(#clip0_2852_4)">
<rect width="500" height="500" fill="white"/>
<path d="M341.953 311.88C341.953 325.8 338.353 339 331.153 351.48C324.193 363.96 313.273 374.16 298.393 382.08C283.753 389.76 264.673 393.6 241.153 393.6C229.393 393.6 219.073 393 210.193 391.8C201.553 390.84 193.393 389.16 185.713 386.76C178.033 384.36 170.113 381.24 161.953 377.4V315.48C175.873 322.44 189.913 327.84 204.073 331.68C218.233 335.28 231.073 337.08 242.593 337.08C249.553 337.08 255.193 336.24 259.513 334.56C263.833 332.88 267.073 330.6 269.233 327.72C271.393 324.84 272.473 321.6 272.473 318C272.473 313.44 270.913 309.6 267.793 306.48C264.673 303.36 259.753 300.12 253.033 296.76C246.313 293.4 237.313 289.2 226.033 284.16C216.433 279.84 207.793 275.28 200.113 270.48C192.433 265.68 185.833 260.28 180.313 254.28C175.033 248.28 170.953 241.32 168.073 233.4C165.193 225.24 163.753 215.64 163.753 204.6C163.753 188.04 167.833 174.24 175.993 163.2C184.153 151.92 195.433 143.52 209.833 138C224.473 132.24 241.393 129.36 260.593 129.36C277.393 129.36 292.513 131.28 305.953 135.12C319.393 138.72 331.393 142.92 341.953 147.72L320.713 201.36C309.673 196.32 298.753 192.36 287.953 189.48C277.393 186.36 267.553 184.8 258.433 184.8C252.433 184.8 247.513 185.52 243.673 186.96C239.833 188.4 236.953 190.44 235.033 193.08C233.353 195.48 232.513 198.24 232.513 201.36C232.513 205.44 234.073 209.04 237.193 212.16C240.313 215.28 245.473 218.76 252.673 222.6C260.113 226.2 270.193 230.88 282.913 236.64C295.393 242.16 305.953 248.28 314.593 255C323.473 261.48 330.193 269.28 334.753 278.4C339.553 287.28 341.953 298.44 341.953 311.88Z" fill="#7C008C"/>
</g>
<defs>
<clipPath id="clip0_2852_4">
<rect width="500" height="500" fill="white"/>
</clipPath>
</defs>
</svg>
